<svg version="1" xmlns="http://www.w3.org/2000/svg" width="933.333" height="933.333" viewBox="0 0 700.000000 700.000000"><path d="M245.5 20.6c-15.7 2.3-16.7 2.5-31 6-37.1 9.2-54 19.4-56.8 34.2-1.1 5.4 3.3 13.2 7.5 13.2 2.2 0 2.3 1.3.2 4.5-.9 1.3-1.8 5.2-2.1 8.5-.5 5.5-.3 6.5 2.5 11l3.1 5-3.9 8.3c-2.1 4.5-4.2 9.8-4.6 11.7-.4 1.9-.8 22.6-.9 46-.1 26.5-.6 45.1-1.3 49.5-.6 3.8-1.4 13.1-1.7 20.5-.3 7.4-.8 19.1-1.1 26-.6 13-.7 20.3-.5 28.2.1 3.8.7 5.2 3.2 7.7 2 2 2.5 3.1 1.6 3.1-1.2 0-1.4.8-1 3.2.5 3.1 2 5.1 3.3 4.4.3-.2 3.7-.6 7.5-1 16-1.4 20-1.8 20.5-1.8 2.7-.2 3 .6 3 7.9 0 15.7 5.7 29.7 16.4 40.7 7.3 7.5 15.3 12.5 26.1 16.2 7.2 2.5 9.4 2.8 21 2.8 13.9 0 19.3-1.2 31-7.1 13-6.4 23.9-18.7 28.6-31.8 3-8.5 3.3-10.5 3.2-24.7 0-13.9-.4-12.9 6.2-14.4 5.2-1.1 37.7-1.2 44.6-.1l6.7 1.1v14c0 12.4.3 15 2.5 21.4 3.5 10.3 8.1 17.3 15.9 24.7 11.7 11.1 27.6 17.3 44.3 17.3 19.2 0 36.4-7.2 48.5-20.4 10.1-11.2 14-20.7 14.9-36.9.3-6.4 1-10.9 1.6-10.8.6 0 4.6.4 9 .7 4.4.4 11.3 1 15.3 1.4 3.9.5 7.6.6 8 .3.4-.3.9-2.2 1-4.1.3-3.2.1-3.5-2.5-3.6-1.5 0-5.7-.3-9.3-.7-3.6-.4-9.6-1-13.5-1.3-3.8-.4-7.6-.7-8.4-.9-.7-.1-2.1-2.2-3.1-4.8-2.2-5.8-5.5-11-9.4-15.1-3.7-3.9-12-10.6-13-10.6-.5 0-2-.8-3.4-1.8-1.5-1.1-6.5-3.2-11.2-4.7-13.9-4.6-36.2-4.3-49.5.7-16 6-26.9 14.5-32.9 25.8-1.6 3-3 5.6-3.1 5.7-.1.2-1.7-.2-3.5-.7-11-3.1-42.2-3.1-53 0-1.9.5-3.5 1-3.6 1-.1 0-1.9-3-4-6.6-8.9-15.3-24.9-25.1-46.9-28.9-10.3-1.8-27.5.1-38.5 4.2-17.4 6.6-28.9 17.6-34.9 33.5-1 2.5-1.5 2.8-6.1 2.8-2.7 0-5.2.1-5.5.2-.2 0-2.4.4-4.9.8l-4.4.7 2-2.8c1.3-1.7 2.1-4.7 2.4-8 1.1-18.8 1.5-23.7 1.9-26.4.2-1.7 1.1-8.2 2-14.5 2-14.6 2.4-17.4 3.5-23.5.5-2.8 1.6-10.4 2.5-17 2.6-19.6 4.3-29.7 6-35.1 3.4-11.5 18.9-30.3 31.5-38.2 3.6-2.3 7-4.5 7.5-4.9 6.5-4.9 30.5-12.5 43.5-13.7 3.6-.4 8.1-.9 10-1.1 1.9-.3 7.3-.7 12-1 4.7-.3 11.2-.7 14.5-1 18.1-1.2 41.7-1.6 47-.6 7.7 1.3 11.1 1.9 16 2.6 2.2.4 6.9 1.1 10.5 1.7 3.6.5 8.1 1.2 10 1.5 5 .6 33.9 6 44.5 8.3 5 1.1 10.7 2.2 12.9 2.6 4.9.9 14.5 8.1 25.1 18.9 13.1 13.4 22.5 25 24.6 30.5 1.8 4.8 11.2 40.2 12.4 46.5.3 1.6 1.2 6.8 2 11.5s1.7 9.5 1.9 10.7c.3 1.2.7 5 1.1 8.5.3 3.5.8 7.9 1 9.8.2 1.9.7 7.8 1 13 .8 14.2 2.9 18.5 10 20.4 4.6 1.3 11.3-6.1 11.7-12.8.1-3.2-1.2-36.5-1.7-41.6-.5-5.2-1.3-13.8-2-23-.3-3.6-.7-7.6-1-9-.3-1.4-.7-4.1-.9-6.1-2.5-20.7-10.3-47.5-18.6-64.4-5.7-11.3-6.3-12.5-10.6-18-1.7-2.2-4.5-7.1-6.3-10.9-9.1-19.4-27-41-46-55.5-6.6-5-26.5-18.1-27.6-18.1-.2 0-3.6-1.5-7.7-3.4-13.2-6.3-32.9-12.6-43.8-14.1-1.4-.2-5.4-.8-8.8-1.3-3.5-.5-15.9-1-27.5-1.1-24-.3-38.7-.7-59.7-1.7-23.6-1.1-28.1-1.1-36.5.2z"/><path d="M523.6 375.2c-.7 1.3-1.6 3.5-2 5-.4 1.7-1.8 3.4-3.6 4.3-3.8 2-4.5 3.4-7.5 15.1-1.4 5.2-4.5 14.6-6.9 20.7-2.5 6.2-6.5 16.7-9 23.4-5.7 15.4-15.7 35.3-23.4 46.8-5.8 8.7-6.4 9.2-15 13.8l-9 4.8-3.2-6.8c-10-21.1-29.1-43.3-48.2-55.8-17.4-11.5-32.3-16.3-49.4-16-17.5.3-29.6 5-46.9 18.1-14.2 10.7-20.5 14.9-24.8 16.5-2 .7-3.7 1.7-3.7 2.1 0 .4-2.1 3.2-4.7 6.2-2.7 2.9-6.7 7.5-9 10.1-2.3 2.6-5.3 7.1-6.7 10-1.9 4.2-3.3 5.6-6.8 7.2-2.3 1.1-6.2 2.3-8.5 2.7-3.7.5-4.4.3-6.7-2.4-2.5-3-14.6-21.2-16-24-.4-.8-1.2-2.4-1.9-3.5-1.6-2.7-7.8-13.7-11.5-20.5-4.3-8-10.3-18.3-11.2-19.5-1.3-1.7-6.9-17-8.1-22.1-1.1-5.2-1.6-8.2-2.3-15.3-.6-6.2-4.1-8.7-8-5.8-1.7 1.2-1.8 3.6-1.8 34.3.1 18.1.3 35.4.6 38.4 4.9 46.4 36.8 111.8 72.8 149.1 13.4 13.9 24.6 22.5 38.8 30.1 3.6 1.9 9.6 5.8 13.4 8.6 8.8 6.8 16.8 10.8 25.2 12.7 1 .2 4.6 1.5 8 2.9 12.8 5.3 28.4 6.5 43.4 3.2 23.1-5 39.6-14.4 60.9-34.8 17.8-17.1 38.2-44.5 53.6-72.3 29-52.1 46.6-98 50.3-130.6 1-8.9.8-29-.2-31.4-1-2.3-1.4-5.7-1.9-16.7-.2-4.3-1-8.4-1.7-9.3-1.9-2.2-5.7-1.9-7.4.7zM359 472.5c10.2.3 20 2.4 25.8 5.5 7 3.8 19.8 14.6 35 29.8 17.2 17.1 16.5 15.5 10.6 25.4-2.9 4.7-4.7 6.4-11.5 10.3-13.2 7.8-19.3 8.3-26.4 2-2.2-1.9-4.3-3.5-4.6-3.5-.4 0-1.9-1.9-3.4-4.3-6.4-9.7-12-12.3-24.4-11.2-10 .9-15 .8-24.7-.8-10.2-1.7-20.2-1.4-24.5.8-3.7 1.8-11.9 9.3-11.9 10.8 0 3.5-6.5 13.7-8.8 13.7-1 0-3.5 1-5.7 2.1l-3.9 2.1-4.1-4.4c-2.2-2.5-6.4-7.2-9.3-10.4l-5.3-5.9.5-8c.6-9 3.4-20.5 6.3-26.2 1.5-2.8 3-4.1 5.9-5.1 4.8-1.6 19.2-7.8 29.9-12.8 4.4-2 12.1-5.4 17-7.6 8.9-3.8 9.1-3.8 18.5-3.2 5.2.3 13.8.8 19 .9z"/></svg>